<svg xmlns="http://www.w3.org/2000/svg" viewBox="0 0 199.53 183.56"><defs><style>.cls-1{fill:#e6e6d5;}.cls-2{fill:#50603a;}</style></defs><title>Recurso 18</title><g id="Capa_2" data-name="Capa 2"><g id="Capa_1-2" data-name="Capa 1"><rect class="cls-1" x="28.71" width="141.73" height="141.73" rx="27.23"/><path class="cls-2" d="M69.23,54.83l3.93,42.71A10.67,10.67,0,0,0,83.83,108.2h35.46A10.66,10.66,0,0,0,130,97.54l3.44-42.71Zm9.7,32.28a5.6,5.6,0,0,1,.5-3.5,49.19,49.19,0,0,1,3.38-5.09l-4.09-3.61h12.5l4.24,10.72L95,86l-3.8-2.49L83.86,95.6C82,93.07,79.7,90.49,78.93,87.11Zm20.56,12c-3.58,0-6.94.1-10.28,0-2.5-.1-3.64-1.86-2.72-4.18a36.82,36.82,0,0,1,2.58-4.78,1.26,1.26,0,0,1,.88-.61c3,0,6,0,9,0a2.34,2.34,0,0,1,.49.18Zm1.59-31.06c0,.11-.19.21-.26.33Q98.48,72,96.17,75.6l-7.35-4.83a1,1,0,0,1-.28-1.56c1.58-2.28,3.09-4.61,4.71-6.85,1.33-1.82,2.48-1.91,4-.21s2.53,3.34,3.75,5.05A1.51,1.51,0,0,1,101.08,68.08Zm3.51.88c-1.23-1.94-2.31-4-3.66-5.84a32.53,32.53,0,0,0-3.34-3.44,7.15,7.15,0,0,1,1.53-.26c2.78,0,5.56.15,8.34.22a3.21,3.21,0,0,1,2.86,1.62c.87,1.49,1.75,3,2.56,4.5.43.81.86.94,1.7.53a27.78,27.78,0,0,1,3.13-1.14l.36.53-2.49,4.15a11.51,11.51,0,0,0-1.4,2.34c-.73,2.28-2.29,2.43-4.33,2.2-2.51-.29-5.06-.27-8.13-.41A19.06,19.06,0,0,1,104,71.83C105.31,71,105.33,70.12,104.59,69ZM122,91.15c-1.28,2-2.6,4-3.91,6A3.65,3.65,0,0,1,114.56,99c-1.53-.08-3.06,0-4.58,0-.13,1.54-.25,2.89-.41,4.69-.77-.84-1.29-1.31-1.7-1.86-1.8-2.42-3.59-4.86-5.33-7.32a1.34,1.34,0,0,1-.13-1.2c1.54-2.24,3.16-4.42,4.77-6.61.47-.63,1-1.23,1.49-1.84l.64.37.43,4.48h12.92A10.51,10.51,0,0,1,122,91.15Zm-1.34-3.48c-1.68.08-3.64.69-5,0s-1.9-2.62-2.8-4c-1-1.56-2-3.14-3.05-4.81,1.41-.74,2.78-1.38,4.06-2.17S116.42,75,117.78,74a10.54,10.54,0,0,1,.88,1.13c1.56,2.64,3.15,5.26,4.64,8S123.58,87.53,120.65,87.67Z"/><rect class="cls-2" x="64.55" y="46.01" width="73.51" height="7.5" rx="3.75"/><path class="cls-2" d="M88.19,40.07c.68.63,1.4,1.23,2,1.92s1.07,1.39,1.77,2.32c-2.14.16-3.76.6-5.37-1.14-2.89-3.12-6.15-5.89-9.2-8.87a43.66,43.66,0,0,1-3-3.49,2.72,2.72,0,0,0-3.07-.06c-1,.87-2.1,1.74-3.11,2.66-1.54,1.39-1.64,4.61-.1,6,1.73,1.56,3.4,3.25,6,3.43.56,0,1.07.57,1.61.88l-.16.38-5.8.56a.71.71,0,0,1-.47-.14c-2.09-2.05-4.52-3.89-5-7.05a7.72,7.72,0,0,1,1.16-5.85c.19-.27.08-1.13-.12-1.22a5.6,5.6,0,0,0-2.47-.71,6.43,6.43,0,0,1-4.17-1.15,5,5,0,0,1-2-5.65,2.59,2.59,0,0,1,2.51-1.3c.29.06.56.21.85.26,2,.33,2.09.26,2.52-1.72s1.42-3.3,2.7-3.33c1.84-.05,2.36,1.53,2.9,2.81a9.62,9.62,0,0,1,.21,6.16c-.42,1.69.27,2.37,1.95,2a7.36,7.36,0,0,1,7.81,2.54c1.16,1.41,2.44,2.72,3.92,4.35a36.1,36.1,0,0,0,0-4.1c0-.39-.7-.78-1.15-1a10.4,10.4,0,0,1-5.51-10.67c.08-.58.27-1.14.45-1.87l2.88,1.09c1-1.95,1.84-3.84,2.82-5.67.73-1.36,1.2-1.4,2.27-.22a15.11,15.11,0,0,1,1.59,2.15c.48.75.84,1.57,1.28,2.41.64-.2,1.29-.38,1.92-.6s1.09,0,1.27.76c1.07,4.37.91,8.42-2.94,11.51a5.6,5.6,0,0,0-2.33,4.46,1.91,1.91,0,0,1-2,2.12l5.68,5.12ZM82.27,27.91c.51-2.76-1.76-7.1-4.57-7.66C77.78,23.6,79.89,25.7,82.27,27.91Zm.25-12.73c-1.47,3.44-1.38,4,.88,6.19C85.26,18.65,85.18,18.06,82.52,15.18Zm5,5A6.31,6.31,0,0,0,85,27.07C86.93,25.15,88.6,23.21,87.49,20.14Zm-28,4.19a2.61,2.61,0,0,0,3.67,2.4C62.46,25.22,61,24.88,59.52,24.33Zm5.9-4.53c-.94,2.11-.63,3.95.77,5.18A7.27,7.27,0,0,0,65.42,19.8Z"/><path class="cls-2" d="M88.23,40.11a8.88,8.88,0,0,1,1.94-11.6,8.2,8.2,0,0,1,2.6-1.28,1.34,1.34,0,0,0,1.08-1.6c-.11-.85-.17-1.7-.24-2.54a4.38,4.38,0,0,1,2.71-4.39,3,3,0,0,1,1.83-.35c1.71.37,3.39.9,5.28,1.43a6.44,6.44,0,0,1-.74,1.52c-.84,1-1.81,1.92-2.67,2.92a4.67,4.67,0,0,0-1,1.6,1.25,1.25,0,0,0,.58,1.09c1.63.66,3.31,1.2,5,1.8,1.14-4.26,3.73-6.82,8.8-5.79a14.18,14.18,0,0,1,2.37-7.1c.54-.77,1-1.56,2.13-1a2.46,2.46,0,0,1,.81,2.72c-.54,1.57-1.09,3.13-1.61,4.71a1.16,1.16,0,0,0,.76,1.64c3.8,1.39,5.58,7.8,2,11.76-3.09,3.47-7.56,2.76-10.83,1.44a4.9,4.9,0,0,1-.52-.24c-.71,2.08-1.41,4.13-2.12,6.18a1.56,1.56,0,0,1-1.72,1.16,43,43,0,0,1-4.84.05l1.2-1.14a10.15,10.15,0,0,1,1.43-1.27c2.45-1.55,3-3.76,2.3-6.42a8.85,8.85,0,0,0-4.37-5.57,1.9,1.9,0,0,0-1.55,0,4.33,4.33,0,0,1-3.47.16,3,3,0,0,0-3.18.7,7.9,7.9,0,0,0-2.48,8.23c.1.48.14,1,.24,1.69l-1.85-.53Zm24.92-4.73c3.18.24,4.54-1,5.5-2.81a5,5,0,0,0-.63-5.52,1.38,1.38,0,0,0-1.27-.26,3.9,3.9,0,0,1-3.88-.3c-2.6-1.5-2.62-1.47-4.68.8-.22.25-.43.52-.64.79a3.26,3.26,0,0,0-.29,3.59C108.58,34.72,111.36,35,113.15,35.38ZM99.14,21c-1.74,0-2.8,1.56-2.79,4Z"/><path class="cls-2" d="M130.65,44.05c1.57-2.09,3.11-4.19,4.71-6.26,1-1.35,1-1.26-.49-2.17a18.74,18.74,0,0,1-3.58-2.83c-2.07-2.07-2.85-2-4.39.56-2.17,3.56-4.45,7.06-6.73,10.55a1.69,1.69,0,0,1-1.23.68c-1.52,0-3-.17-5-.31a10.64,10.64,0,0,1,1.73-1,6,6,0,0,0,3.15-2.69c1.65-2.63,3.25-5.3,5-7.89a15.62,15.62,0,0,1,2.6-3.12c1.89-1.68,4-1.73,6.18-.18a12.19,12.19,0,0,0,1-2.11A8,8,0,0,1,137,22.92c.72-.54,1.44-1.07,2.13-1.65a1.81,1.81,0,0,1,2.45-.1,2.31,2.31,0,0,1,1,2.54,10.54,10.54,0,0,1-3.47,6.08,7.19,7.19,0,0,0-1,1c-1.16,1.49-1.16,1.73,0,3.16a3.38,3.38,0,0,1,.3,4.07c-1.17,2-2.58,3.9-3.94,5.8-1,1.44-2.44.26-3.65.58Zm3.93-12.48.58.11c.85-3.12,3.88-4.92,4.7-8.08a1,1,0,0,0-.73.28c-1.57,2.21-3.14,4.42-4.65,6.66C134.33,30.76,134.54,31.22,134.58,31.57Z"/><path class="cls-2" d="M123.43,13.69a9.23,9.23,0,0,1,9,7.14,27.57,27.57,0,0,1,.74,5.06c.11,1.39-.45,1.75-1.68,1.12a8.6,8.6,0,0,0-4.33-.75c-1.49,0-2.43-1.31-2.8-2.43A91.7,91.7,0,0,1,122,14.7C121.83,13.78,122.1,13.68,123.43,13.69Zm7.34,10.18c-.45-2.9-3.19-6.3-5.38-6.75C125.46,20.84,127.08,23.32,130.77,23.87Z"/><path class="cls-2" d="M91.69,37.26c.07-1.92.62-2.16,1.91-1.46,2.26,1.22,4.52,2.41,5.57,5,.13.31.4.61.42.92a15.3,15.3,0,0,1-.06,1.91c-.74-.2-1.87-.16-2.16-.63a13.84,13.84,0,0,0-4.91-4.53C92,38.16,91.81,37.46,91.69,37.26Z"/><path class="cls-2" d="M70.67,39.41l-1.14-.58a7.29,7.29,0,0,1,.79-1.22,1.72,1.72,0,0,1,1-.47,11.47,11.47,0,0,1,1.73.2,9.22,9.22,0,0,1-1,1.72C71.81,39.32,71.26,39.28,70.67,39.41Z"/><path class="cls-2" d="M82.59,40.69c.4.49.79.86.75.93-.42.59-.91,1.12-1.38,1.67-.23-.25-.7-.63-.64-.74A15.55,15.55,0,0,1,82.59,40.69Z"/><path class="cls-2" d="M83.08,44.65l1.29-1.59.45.11c0,.44.18,1.07,0,1.27a4.56,4.56,0,0,1-1.51.61Z"/><path class="cls-2" d="M79.49,40.63l1-2.05c.3.48.73,1,.66,1.1a12.09,12.09,0,0,1-1.43,1.22Z"/><path class="cls-2" d="M101.65,111c2.88,0,5.76,0,8.64,0a4.34,4.34,0,0,1,3.34,1.48,2.08,2.08,0,0,1,.25,2.78,4,4,0,0,1-3.95,2c-3.35-.26-6.73-.25-10.09-.18-.7,0-1.37.78-2.06,1.2.48.71.81,1.77,1.47,2a37.88,37.88,0,0,0,6.31,2.16c3.42.83,6.63-.37,9.85-1.37,4.08-1.26,7.6-3.61,11.28-5.64a37.32,37.32,0,0,1,4.55-2.3,4.48,4.48,0,0,1,2.89-.09c2.09.79,2.28,2.93.47,4.26a21,21,0,0,1-2.06,1.3c-2.23,1.3-4.54,2.51-6.71,3.92a46.49,46.49,0,0,1-11.57,5.26c-2.2.69-4.34,1.6-6.56,2.15-3.92,1-7.7.12-11.45-1.14-3.6-1.21-7.26-2.25-10.92-3.28a16.35,16.35,0,0,0-3.37-.4c-.62,0-.84-.29-.84-.9,0-2.76-.07-5.52,0-8.27a1.43,1.43,0,0,1,.6-1.13c3.4-1.28,6.57-3.22,10.25-3.67a25.44,25.44,0,0,1,3.15-.1h6.57Z"/><path class="cls-2" d="M78.21,119.33v8.75c0,1.55-.39,2-1.9,2-2.35,0-4.7,0-7,0-1.7,0-2.47-.68-2.46-2.4,0-3.77.07-7.54.08-11.3,0-2.15-.08-4.3-.1-6.44,0-1.4.54-2.09,1.92-2.11,2.51,0,5,0,7.53.09a1.7,1.7,0,0,1,1.86,1.91c0,3.16,0,6.32,0,9.48Z"/><path class="cls-2" d="M26,183H0v-6.51H2.15V162.35H0v-6.5H26v8.69H18.83v-2.19H12.66v4.18H18v5.53H12.66v4.45h6.17v-2.18H26Z"/><path class="cls-2" d="M47.05,175.24l7.33,1.65a8.24,8.24,0,0,1-4,4.92,15,15,0,0,1-7.58,1.75q-6,0-9.41-2.69A8.73,8.73,0,0,1,30,173.64a9.09,9.09,0,0,1,3.2-7.15,11.79,11.79,0,0,1,8-2.77,10.45,10.45,0,0,1,6.27,1.62v-1.27h6v8.09h-6q-1.11-3.24-3.77-3.24a3.19,3.19,0,0,0-2.77,1.38,6,6,0,0,0-1,3.46A5.26,5.26,0,0,0,41,177.24a3.32,3.32,0,0,0,2.69,1.27Q46.42,178.51,47.05,175.24Z"/><path class="cls-2" d="M57.46,173.45a8.76,8.76,0,0,1,3.52-7q3.51-2.88,9.49-2.87a16.07,16.07,0,0,1,9.78,2.77A8.57,8.57,0,0,1,84,173.53a8.8,8.8,0,0,1-3.59,7.16q-3.6,2.88-9.49,2.87-6.37,0-9.92-2.87A8.89,8.89,0,0,1,57.46,173.45Zm9.94,0q0,4.53,3.24,4.53c2.3,0,3.44-1.53,3.44-4.57a5.39,5.39,0,0,0-.84-3.24,2.84,2.84,0,0,0-2.42-1.16,3,3,0,0,0-2.48,1.14A5,5,0,0,0,67.4,173.49Z"/><path class="cls-2" d="M103.3,183H86.8v-6.51h2.85V162.35h-3v-6.5h26.76v9h-7.23v-2.45h-6.07v4.18h4.68v5.53h-4.68v4.45h3.14Z"/><path class="cls-2" d="M110.59,173.45a8.78,8.78,0,0,1,3.51-7q3.53-2.88,9.49-2.87a16.11,16.11,0,0,1,9.79,2.77,8.59,8.59,0,0,1,3.77,7.23,8.81,8.81,0,0,1-3.6,7.16q-3.59,2.88-9.49,2.87-6.36,0-9.92-2.87A8.88,8.88,0,0,1,110.59,173.45Zm9.94,0q0,4.53,3.24,4.53c2.29,0,3.44-1.53,3.44-4.57a5.39,5.39,0,0,0-.84-3.24,2.85,2.85,0,0,0-2.42-1.16,3.08,3.08,0,0,0-2.49,1.14A5.07,5.07,0,0,0,120.53,173.49Z"/><path class="cls-2" d="M140.59,173.45a8.78,8.78,0,0,1,3.51-7q3.53-2.88,9.49-2.87a16.11,16.11,0,0,1,9.79,2.77,8.59,8.59,0,0,1,3.77,7.23,8.81,8.81,0,0,1-3.6,7.16q-3.59,2.88-9.49,2.87-6.36,0-9.92-2.87A8.88,8.88,0,0,1,140.59,173.45Zm9.94,0q0,4.53,3.24,4.53c2.29,0,3.44-1.53,3.44-4.57a5.39,5.39,0,0,0-.84-3.24,2.85,2.85,0,0,0-2.42-1.16,3.08,3.08,0,0,0-2.49,1.14A5.07,5.07,0,0,0,150.53,173.49Z"/><path class="cls-2" d="M199.53,177.06v6H187.25v-1.27a12.22,12.22,0,0,1-6.33,1.62,11.1,11.1,0,0,1-7.09-2.44,8.39,8.39,0,0,1-3.09-7q0-4.91,2.85-7.58a10.82,10.82,0,0,1,7.64-2.64,11.17,11.17,0,0,1,6,1.56v-3.47h-2.43v-6h12.25v21.21Zm-12.23-3.59a5.07,5.07,0,0,0-.82-3,2.78,2.78,0,0,0-2.44-1.17c-2.22,0-3.34,1.44-3.34,4.31a5,5,0,0,0,.82,2.93,2.77,2.77,0,0,0,2.44,1.17,3.14,3.14,0,0,0,2.43-1A4.8,4.8,0,0,0,187.3,173.47Z"/></g></g></svg>